<svg width="150" height="76" viewBox="0 0 150 76" fill="none" xmlns="http://www.w3.org/2000/svg">
<path fill-rule="evenodd" clip-rule="evenodd" d="M77.6628 33.2251L73.2159 33.2251L69.8021 27.372L67.8366 27.372L67.8366 33.2263L63.6992 33.2263L63.6992 15.4108L70.9396 15.4108C72.672 15.4108 74.1203 15.9966 75.3356 17.1914C76.5508 18.3884 77.1456 19.8141 77.1456 21.5189C77.1456 23.6821 75.8005 25.6672 73.8107 26.685L77.6628 33.2263L77.6628 33.2251ZM70.9397 19.2277L67.8367 19.2277L67.8367 23.8091L70.9397 23.8091C72.0784 23.8091 73.0084 22.8166 73.0084 21.5184C73.0084 20.2203 72.0784 19.2277 70.9397 19.2277ZM87.9363 21.698L87.9363 20.5009L91.8151 20.5009L91.8151 33.225L87.9363 33.225L87.9363 32.0302C87.0319 33.0733 85.7378 33.5811 84.0831 33.5811C82.3762 33.5811 80.929 32.9458 79.7126 31.6477C78.4974 30.3495 77.9037 28.747 77.9037 26.863C77.9037 24.9789 78.4974 23.4016 79.7126 22.1046C80.9279 20.8065 82.3762 20.1448 84.0831 20.1448C85.7378 20.1448 87.0307 20.6537 87.9363 21.6968L87.9363 21.698ZM82.635 29.1288C83.2032 29.6883 83.9535 29.9686 84.8591 29.9686C85.7636 29.9686 86.5138 29.6883 87.0832 29.1288C87.6513 28.5694 87.9366 27.8054 87.9366 26.8634C87.9366 25.9214 87.6513 25.1586 87.0832 24.5991C86.515 24.0385 85.7636 23.7594 84.8591 23.7594C83.9546 23.7594 83.2044 24.0385 82.635 24.598C82.0668 25.1586 81.7816 25.9225 81.7816 26.8634C81.7816 27.8054 82.0668 28.5694 82.635 29.1288ZM103.768 21.697L103.768 15.4108L107.647 15.4108L107.647 33.2263L103.768 33.2263L103.768 32.0304C102.864 33.0735 101.571 33.5813 99.9161 33.5813C98.2092 33.5813 96.7621 32.946 95.5457 31.6478C94.3305 30.3497 93.7368 28.7471 93.7368 26.8631C93.7368 24.9791 94.3305 23.4018 95.5457 22.1048C96.7609 20.8067 98.2092 20.1449 99.9161 20.1449C101.571 20.1449 102.864 20.6539 103.768 21.697ZM98.4675 29.1288C99.0357 29.6883 99.7859 29.9686 100.692 29.9686C101.596 29.9686 102.346 29.6883 102.914 29.1288C103.484 28.5694 103.768 27.8054 103.768 26.8634C103.768 25.9214 103.484 25.1586 102.914 24.5991C102.346 24.0385 101.596 23.7594 100.692 23.7594C99.7871 23.7594 99.0368 24.0385 98.4675 24.598C97.8993 25.1586 97.614 25.9225 97.614 26.8634C97.614 27.8054 97.8981 28.5694 98.4675 29.1288ZM113.783 18.7205C112.879 19.6096 111.43 19.6096 110.5 18.7205C109.595 17.8037 109.595 16.3769 110.5 15.4877C111.43 14.571 112.878 14.571 113.783 15.4877C114.713 16.3781 114.713 17.8037 113.783 18.7193L113.783 18.7205ZM114.092 33.2262L110.214 33.2262L110.214 20.501L114.092 20.501L114.092 33.2251L114.092 33.2262ZM124.237 20.5011L124.237 24.1658L121.574 24.1658L121.574 28.6702C121.574 29.688 122.351 29.8661 124.237 29.765L124.237 33.2263C121.781 33.4802 120.074 33.2516 119.118 32.5393C118.161 31.8006 117.695 30.5289 117.695 28.6702L117.695 24.1658L115.626 24.1658L115.626 20.5011L117.695 20.5011L117.695 18.0829L121.574 16.9375L121.574 20.5011L124.237 20.5011ZM132.131 28.2885L134.561 20.4997L138.698 20.4997L134.277 32.8435C132.829 36.8402 130.554 38.4944 126.907 38.3164L126.907 34.7528C128.691 34.7528 129.545 34.1933 130.14 32.6402L124.993 20.5009L129.261 20.5009L132.131 28.2885Z" fill="#02072F"/>
<path opacity="0.9" fill-rule="evenodd" clip-rule="evenodd" d="M23.2008 69.9821C22.8424 70.0224 22.506 70.0426 22.1917 70.0426C21.3078 70.0426 20.5197 69.8913 19.8273 69.5888C19.1349 69.2863 18.5505 68.8779 18.0742 68.3637C17.5979 67.8494 17.2345 67.252 16.984 66.5713C16.7336 65.8907 16.6084 65.1722 16.6084 64.416C16.6084 63.6194 16.7434 62.8782 17.0135 62.1926C17.2836 61.5069 17.6568 60.912 18.1331 60.4078C18.6094 59.9036 19.1815 59.5078 19.8494 59.2205C20.5172 58.9331 21.2489 58.7894 22.0444 58.7894C23.0069 58.7894 23.7926 58.9129 24.4015 59.16C25.0104 59.407 25.5211 59.7473 25.9336 60.1809L24.9318 61.2851C24.4997 60.8615 24.043 60.5666 23.5618 60.4002C23.0805 60.2339 22.5747 60.1507 22.0444 60.1507C21.4453 60.1507 20.9051 60.2641 20.4239 60.491C19.9427 60.7179 19.5302 61.0229 19.1864 61.4061C18.8427 61.7892 18.5775 62.2405 18.3909 62.7598C18.2043 63.2791 18.111 63.8311 18.111 64.416C18.111 65.021 18.2141 65.5831 18.4204 66.1024C18.6266 66.6217 18.9114 67.073 19.2748 67.4561C19.6382 67.8393 20.0654 68.1393 20.5565 68.3561C21.0476 68.5729 21.5828 68.6813 22.1623 68.6813C22.6631 68.6813 23.137 68.6334 23.5839 68.5376C24.0307 68.4418 24.4113 68.3032 24.7256 68.1217L24.7256 65.142L22.4127 65.142L22.4127 63.7807L26.1398 63.7807L26.1398 69.0594C25.8845 69.2208 25.5948 69.3619 25.2707 69.4829C24.9466 69.6039 24.6102 69.7073 24.2615 69.793C23.9129 69.8787 23.5593 69.9417 23.2008 69.9821ZM6.89791 69.3172C6.18587 69.6197 5.36334 69.771 4.43033 69.771L1.02728 69.771L1.02728 59.0623L4.66604 59.0623C5.40263 59.0623 6.04837 59.148 6.60327 59.3194C7.15817 59.4908 7.63941 59.7202 8.04699 60.0076C8.45457 60.295 8.7934 60.6252 9.06348 60.9983C9.33356 61.3714 9.54717 61.7546 9.70431 62.1478C9.86145 62.5411 9.9744 62.9344 10.0431 63.3276C10.1119 63.7209 10.1463 64.0839 10.1463 64.4166C10.1463 65.1023 10.0235 65.7653 9.77797 66.4056C9.53244 67.0459 9.16906 67.6156 8.68782 68.1147C8.20658 68.6139 7.60994 69.0147 6.89791 69.3172ZM2.44107 68.4094L4.22361 68.4094C4.8227 68.4094 5.38988 68.3262 5.92513 68.1598C6.46039 67.9934 6.92935 67.7439 7.33201 67.4111C7.73468 67.0784 8.05387 66.6624 8.28958 66.1633C8.52529 65.6642 8.64314 65.0818 8.64314 64.4163C8.64314 64.0735 8.58913 63.6727 8.48109 63.2139C8.37306 62.7551 8.16927 62.319 7.86972 61.9055C7.57018 61.4921 7.15523 61.1417 6.62489 60.8543C6.09454 60.567 5.40706 60.4233 4.56244 60.4233L2.44106 60.4233L2.44107 68.4094ZM14.0846 69.7718L14.0846 59.0632L12.6703 59.0632L12.6703 69.7718L14.0846 69.7718ZM30.6233 69.7718L30.6233 59.0632L29.2091 59.0632L29.2091 69.7718L30.6233 69.7718ZM37.3898 60.4244L37.3898 69.7718L35.9755 69.7718L35.9755 60.4244L32.6167 60.4244L32.6167 59.0632L40.7486 59.0632L40.7486 60.4244L37.3898 60.4244ZM41.7114 69.7718L42.7426 67.1249L47.7073 67.1249L48.7532 69.7718L50.4032 69.7718L45.9394 59.0632L44.6578 59.0632L40.0614 69.7718L41.7114 69.7718ZM43.2436 65.8532L47.1917 65.8532L45.2472 60.9375L45.2177 60.9375L43.2436 65.8532ZM58.4518 69.7718L58.4518 68.4106L53.664 68.4106L53.664 59.0632L52.2497 59.0632L52.2497 69.7718L58.4518 69.7718ZM68.8624 69.8157C68.4204 69.9669 67.949 70.0425 67.4481 70.0425C66.7803 70.0425 66.1468 69.9215 65.5477 69.6795C64.9486 69.4375 64.4723 69.0645 64.1187 68.5603L65.2825 67.5318C65.5379 67.925 65.8645 68.2149 66.2622 68.4015C66.66 68.588 67.07 68.6813 67.4923 68.6813C67.728 68.6813 67.9686 68.6435 68.2142 68.5678C68.4597 68.4922 68.6831 68.3788 68.8845 68.2275C69.0858 68.0763 69.2503 67.8897 69.378 67.6679C69.5057 67.4461 69.5695 67.1889 69.5695 66.8965C69.5695 66.4831 69.4418 66.168 69.1865 65.9512C68.9311 65.7344 68.6144 65.5529 68.2363 65.4067C67.8582 65.2605 67.4457 65.1193 66.9988 64.9832C66.5519 64.847 66.1395 64.658 65.7613 64.416C65.3832 64.174 65.0665 63.8488 64.8111 63.4404C64.5558 63.032 64.4281 62.4799 64.4281 61.7842C64.4281 61.4716 64.4944 61.1388 64.627 60.7859C64.7596 60.433 64.9683 60.1103 65.2531 59.8179C65.5379 59.5255 65.9037 59.281 66.3506 59.0843C66.7975 58.8877 67.3352 58.7894 67.9637 58.7894C68.5334 58.7894 69.0784 58.8701 69.599 59.0314C70.1195 59.1927 70.5762 59.5204 70.969 60.0145L69.8199 61.0884C69.6432 60.8061 69.3927 60.5792 69.0686 60.4078C68.7445 60.2364 68.3762 60.1507 67.9637 60.1507C67.5709 60.1507 67.2443 60.2036 66.9841 60.3095C66.7238 60.4153 66.5151 60.5515 66.358 60.7179C66.2008 60.8842 66.0903 61.0632 66.0265 61.2548C65.9627 61.4464 65.9307 61.6228 65.9307 61.7842C65.9307 62.2379 66.0584 62.5858 66.3138 62.8278C66.5691 63.0698 66.8859 63.2665 67.264 63.4177C67.6421 63.569 68.0546 63.7051 68.5014 63.8261C68.9483 63.9471 69.3608 64.116 69.7389 64.3328C70.117 64.5496 70.4338 64.842 70.6891 65.21C70.9445 65.5781 71.0721 66.0848 71.0721 66.7301C71.0721 67.2444 70.9764 67.7082 70.7849 68.1216C70.5934 68.5351 70.3356 68.8829 70.0115 69.1653C69.6874 69.4476 69.3043 69.6644 68.8624 69.8157ZM78.4428 70.0425C79.2384 70.0425 79.97 69.8989 80.6379 69.6115C81.3057 69.3241 81.8778 68.9283 82.3541 68.4241C82.8305 67.92 83.2037 67.325 83.4737 66.6394C83.7438 65.9537 83.8789 65.2126 83.8789 64.416C83.8789 63.6194 83.7438 62.8782 83.4737 62.1926C83.2037 61.5069 82.8305 60.912 82.3541 60.4078C81.8778 59.9036 81.3057 59.5078 80.6379 59.2205C79.97 58.9331 79.2383 58.7894 78.4428 58.7894C77.6473 58.7894 76.9156 58.9331 76.2478 59.2205C75.5799 59.5078 75.0079 59.9036 74.5315 60.4078C74.0552 60.912 73.682 61.5069 73.4119 62.1926C73.1418 62.8782 73.0068 63.6194 73.0068 64.416C73.0068 65.2126 73.1418 65.9537 73.4119 66.6394C73.682 67.325 74.0552 67.92 74.5315 68.4241C75.0079 68.9283 75.58 69.3241 76.2478 69.6115C76.9156 69.8989 77.6473 70.0425 78.4428 70.0425ZM76.822 68.3409C77.3032 68.5678 77.8434 68.6813 78.4425 68.6813C79.0416 68.6813 79.5817 68.5678 80.063 68.3409C80.5442 68.1141 80.9567 67.809 81.3004 67.4259C81.6442 67.0427 81.9094 66.5915 82.096 66.0722C82.2826 65.5529 82.3759 65.0008 82.3759 64.416C82.3759 63.8311 82.2826 63.279 82.096 62.7597C81.9094 62.2404 81.6442 61.7892 81.3004 61.406C80.9567 61.0229 80.5442 60.7178 80.063 60.491C79.5817 60.2641 79.0416 60.1507 78.4425 60.1507C77.8434 60.1507 77.3032 60.2641 76.822 60.491C76.3407 60.7178 75.9283 61.0229 75.5845 61.406C75.2408 61.7892 74.9756 62.2404 74.789 62.7597C74.6024 63.279 74.5091 63.8311 74.5091 64.416C74.5091 65.0008 74.6024 65.5529 74.789 66.0722C74.9756 66.5915 75.2408 67.0427 75.5845 67.4259C75.9283 67.809 76.3407 68.1141 76.822 68.3409ZM92.605 69.7718L92.605 68.4106L87.8172 68.4106L87.8172 59.0632L86.4029 59.0632L86.4029 69.7718L92.605 69.7718ZM99.9756 69.7416C99.4845 69.9432 98.9542 70.0441 98.3846 70.0441C97.8149 70.0441 97.2846 69.9432 96.7935 69.7416C96.3025 69.5399 95.8752 69.2525 95.5119 68.8794C95.1485 68.5063 94.8637 68.0652 94.6574 67.556C94.4512 67.0468 94.348 66.4796 94.348 65.8544L94.348 59.0632L95.7623 59.0632L95.7623 65.6275C95.7623 65.9603 95.8065 66.3056 95.8949 66.6636C95.9833 67.0216 96.1306 67.3518 96.3368 67.6543C96.5431 67.9568 96.8132 68.2038 97.1471 68.3954C97.481 68.587 97.8935 68.6828 98.3846 68.6828C98.8756 68.6828 99.2881 68.587 99.622 68.3954C99.956 68.2038 100.226 67.9568 100.432 67.6543C100.639 67.3518 100.786 67.0216 100.874 66.6636C100.963 66.3056 101.007 65.9603 101.007 65.6275L101.007 59.0632L102.421 59.0632L102.421 65.8544C102.421 66.4796 102.318 67.0468 102.112 67.556C101.905 68.0652 101.621 68.5063 101.257 68.8794C100.894 69.2525 100.467 69.5399 99.9756 69.7416ZM108.997 69.7718L108.997 60.4244L112.356 60.4244L112.356 59.0632L104.224 59.0632L104.224 60.4244L107.583 60.4244L107.583 69.7718L108.997 69.7718ZM115.764 59.0632L115.764 69.7718L114.349 69.7718L114.349 59.0632L115.764 59.0632ZM123.724 70.0425C124.519 70.0425 125.251 69.8988 125.919 69.6115C126.587 69.3241 127.159 68.9283 127.635 68.4241C128.112 67.92 128.485 67.325 128.755 66.6394C129.025 65.9537 129.16 65.2126 129.16 64.416C129.16 63.6194 129.025 62.8782 128.755 62.1925C128.485 61.5069 128.112 60.9119 127.635 60.4078C127.159 59.9036 126.587 59.5078 125.919 59.2204C125.251 58.9331 124.519 58.7894 123.724 58.7894C122.928 58.7894 122.197 58.9331 121.529 59.2204C120.861 59.5078 120.289 59.9036 119.813 60.4078C119.336 60.9119 118.963 61.5069 118.693 62.1926C118.423 62.8782 118.288 63.6194 118.288 64.416C118.288 65.2126 118.423 65.9537 118.693 66.6394C118.963 67.325 119.336 67.92 119.813 68.4241C120.289 68.9283 120.861 69.3241 121.529 69.6115C122.197 69.8988 122.928 70.0425 123.724 70.0425ZM122.103 68.3409C122.584 68.5678 123.125 68.6813 123.724 68.6813C124.323 68.6813 124.863 68.5678 125.344 68.3409C125.825 68.1141 126.238 67.809 126.582 67.4259C126.925 67.0427 127.19 66.5915 127.377 66.0722C127.564 65.5529 127.657 65.0008 127.657 64.4159C127.657 63.8311 127.564 63.279 127.377 62.7597C127.19 62.2404 126.925 61.7892 126.582 61.406C126.238 61.0229 125.825 60.7178 125.344 60.491C124.863 60.2641 124.323 60.1506 123.724 60.1506C123.125 60.1506 122.584 60.2641 122.103 60.491C121.622 60.7178 121.209 61.0229 120.866 61.406C120.522 61.7892 120.257 62.2404 120.07 62.7597C119.884 63.279 119.79 63.8311 119.79 64.4159C119.79 65.0008 119.884 65.5529 120.07 66.0722C120.257 66.5915 120.522 67.0427 120.866 67.4259C121.209 67.809 121.622 68.1141 122.103 68.3409ZM133.098 69.7718L133.098 60.9689L133.128 60.9689L138.932 69.7718L140.729 69.7718L140.729 59.0632L139.315 59.0632L139.315 67.866L139.286 67.866L133.54 59.0632L131.684 59.0632L131.684 69.7718L133.098 69.7718ZM147.79 69.8157C147.348 69.9669 146.876 70.0425 146.376 70.0425C145.708 70.0425 145.074 69.9215 144.475 69.6795C143.876 69.4375 143.4 69.0644 143.046 68.5603L144.21 67.5317C144.465 67.925 144.792 68.2149 145.19 68.4014C145.587 68.588 145.997 68.6813 146.42 68.6813C146.655 68.6813 146.896 68.6435 147.142 68.5678C147.387 68.4922 147.611 68.3788 147.812 68.2275C148.013 68.0763 148.178 67.8897 148.305 67.6679C148.433 67.446 148.497 67.1889 148.497 66.8965C148.497 66.4831 148.369 66.168 148.114 65.9512C147.859 65.7344 147.542 65.5529 147.164 65.4067C146.786 65.2604 146.373 65.1193 145.926 64.9831C145.479 64.847 145.067 64.658 144.689 64.416C144.311 64.174 143.994 63.8488 143.739 63.4404C143.483 63.032 143.356 62.4799 143.356 61.7842C143.356 61.4716 143.422 61.1388 143.554 60.7859C143.687 60.433 143.896 60.1103 144.181 59.8179C144.465 59.5255 144.831 59.2809 145.278 59.0843C145.725 58.8877 146.263 58.7894 146.891 58.7894C147.461 58.7894 148.006 58.87 148.526 59.0314C149.047 59.1927 149.504 59.5204 149.896 60.0145L148.747 61.0884C148.571 60.8061 148.32 60.5792 147.996 60.4078C147.672 60.2364 147.304 60.1506 146.891 60.1506C146.498 60.1506 146.172 60.2036 145.912 60.3095C145.651 60.4153 145.443 60.5515 145.285 60.7178C145.128 60.8842 145.018 61.0632 144.954 61.2548C144.89 61.4464 144.858 61.6228 144.858 61.7842C144.858 62.2379 144.986 62.5858 145.241 62.8278C145.497 63.0698 145.813 63.2664 146.191 63.4177C146.57 63.5689 146.982 63.7051 147.429 63.8261C147.876 63.9471 148.288 64.116 148.666 64.3328C149.044 64.5496 149.361 64.842 149.617 65.21C149.872 65.5781 150 66.0848 150 66.7301C150 67.2444 149.904 67.7082 149.712 68.1216C149.521 68.5351 149.263 68.8829 148.939 69.1653C148.615 69.4476 148.232 69.6644 147.79 69.8157Z" fill="#02072F"/>
<path fill-rule="evenodd" clip-rule="evenodd" d="M2.41991 5.5929C1.08343 5.5929 1.89433e-07 6.67633 4.23111e-07 8.01281C6.56789e-07 9.34929 1.08343 10.4327 2.41991 10.4327L29.8685 10.4327C31.205 10.4327 32.2884 9.34928 32.2884 8.0128C32.2884 6.67632 31.205 5.59289 29.8685 5.59289L2.41991 5.5929ZM2.41991 13.0138C1.08343 13.0138 1.48695e-06 14.0972 1.72062e-06 15.4337C1.9543e-06 16.7702 1.08344 17.8536 2.41992 17.8536L39.7034 17.8536C41.0399 17.8536 42.1233 16.7702 42.1233 15.4337C42.1233 14.0972 41.0399 13.0138 39.7034 13.0138L2.41991 13.0138ZM3.01805e-06 22.8542C2.78438e-06 21.5177 1.08343 20.4342 2.41992 20.4342L39.7034 20.4342C41.0399 20.4342 42.1233 21.5177 42.1233 22.8541C42.1233 24.1906 41.0399 25.2741 39.7034 25.2741L2.41992 25.2741C1.08344 25.2741 3.25173e-06 24.1906 3.01805e-06 22.8542ZM2.41992 27.8559C1.08344 27.8559 4.08201e-06 28.9393 4.31569e-06 30.2758C4.54937e-06 31.6122 1.08344 32.6957 2.41992 32.6957L26.591 32.6957C27.9274 32.6957 29.0109 31.6122 29.0109 30.2758C29.0109 28.9393 27.9274 27.8559 26.591 27.8559L2.41992 27.8559ZM5.61309e-06 37.6961C5.37942e-06 36.3596 1.08344 35.2761 2.41992 35.2761L31.5078 35.2761C32.8443 35.2761 33.9278 36.3596 33.9278 37.696C33.9278 39.0325 32.8443 40.116 31.5078 40.116L2.41992 40.116C1.08344 40.116 5.84677e-06 39.0325 5.61309e-06 37.6961ZM2.41992 42.6969C1.08344 42.6969 6.6769e-06 43.7803 6.91058e-06 45.1168C7.14425e-06 46.4533 1.08344 47.5367 2.41992 47.5367L36.4247 47.5367C37.7612 47.5367 38.8446 46.4533 38.8446 45.1168C38.8446 43.7803 37.7612 42.6969 36.4247 42.6969L2.41992 42.6969Z" fill="#02072F"/>
</svg>
