<svg width="61" height="60" viewBox="0 0 61 60" fill="none" xmlns="http://www.w3.org/2000/svg">
<path d="M38.2441 23.3549C38.2441 22.8374 37.8241 22.4199 37.3066 22.4199C36.7891 22.4224 36.3691 22.8424 36.3691 23.3599C36.3691 23.8774 36.7891 24.2974 37.3066 24.2949C37.8241 24.2949 38.2441 23.8749 38.2441 23.3574" stroke="#1D4ED8" stroke-width="3" stroke-linecap="round" stroke-linejoin="round"/>
<path fill-rule="evenodd" clip-rule="evenodd" d="M31.914 36.9629L29.339 39.5429H24.759V43.2154H21.0965V47.8054L17.6615 51.2504H9.4165V42.9879L23.724 28.6479C21.709 23.4129 22.789 17.2579 27.0015 13.0354C32.7015 7.32285 41.944 7.32285 47.644 13.0354C53.344 18.7479 53.344 28.0104 47.644 33.7254C43.389 37.9854 37.169 39.0604 31.914 36.9629Z" stroke="#1D4ED8" stroke-width="3" stroke-linecap="round" stroke-linejoin="round"/>
</svg>
