<svg width="80" height="80" viewBox="0 0 80 80" fill="none" xmlns="http://www.w3.org/2000/svg">
<path d="M36.3585 5.98375L39.203 0.851901C39.2393 0.786142 39.2624 0.713862 39.2709 0.639187C39.2793 0.564512 39.273 0.488905 39.2522 0.416681C39.2314 0.344458 39.1966 0.277033 39.1498 0.218257C39.103 0.159481 39.045 0.110504 38.9793 0.074123C38.9135 0.037742 38.8412 0.0146692 38.7665 0.00622209C38.6919 -0.00222501 38.6163 0.00411905 38.544 0.0248919C38.4718 0.0456647 38.4044 0.0804594 38.3456 0.12729C38.2868 0.17412 38.2379 0.232069 38.2015 0.297827L35.3274 5.48301C32.8739 4.40731 30.2241 3.85192 27.5452 3.85192C24.8663 3.85192 22.2164 4.40731 19.763 5.48301L16.8889 0.297827C16.8154 0.164236 16.6919 0.0653048 16.5455 0.0227966C16.399 -0.0197116 16.2417 -0.0023149 16.1081 0.0711599C15.9746 0.144635 15.8756 0.268169 15.8331 0.414586C15.7906 0.561003 15.808 0.71831 15.8815 0.851901L18.7259 5.98375C16.0195 7.31854 13.7329 9.37279 12.1169 11.9213C10.5008 14.4697 9.61775 17.414 9.56445 20.4312H45.5259C45.4721 17.4133 44.5881 14.4687 42.971 11.9201C41.3538 9.37162 39.066 7.31772 36.3585 5.98375ZM9.56148 47.9126C9.56031 48.4847 9.67207 49.0514 9.89036 49.5801C10.1086 50.1089 10.4292 50.5894 10.8335 50.994C11.2379 51.3987 11.7182 51.7195 12.2468 51.9382C12.7754 52.1568 13.342 52.269 13.9141 52.2682H16.797V61.1571C16.797 62.2262 17.2217 63.2515 17.9777 64.0075C18.7337 64.7635 19.759 65.1882 20.8281 65.1882C21.8973 65.1882 22.9226 64.7635 23.6786 64.0075C24.4346 63.2515 24.8593 62.2262 24.8593 61.1571V52.2682H30.2341V61.1571C30.2341 62.2258 30.6586 63.2508 31.4143 64.0065C32.17 64.7622 33.195 65.1867 34.2637 65.1867C35.3324 65.1867 36.3574 64.7622 37.1131 64.0065C37.8688 63.2508 38.2933 62.2258 38.2933 61.1571V52.2682H41.1793C41.7506 52.2686 42.3164 52.1563 42.8443 51.9379C43.3721 51.7194 43.8518 51.3991 44.2558 50.9951C44.6598 50.5911 44.9801 50.1115 45.1986 49.5836C45.417 49.0557 45.5293 48.4899 45.5289 47.9186V21.8534H9.55852L9.56148 47.9126ZM4.02963 21.1571C2.96087 21.1587 1.93638 21.5841 1.18094 22.3401C0.42549 23.0961 0.000783545 24.1209 0 25.1897V41.9867C-1.11516e-08 42.5159 0.104229 43.0399 0.306737 43.5288C0.509245 44.0177 0.806065 44.4619 1.18025 44.8361C1.55444 45.2103 1.99866 45.5071 2.48756 45.7096C2.97645 45.9121 3.50045 46.0163 4.02963 46.0163C4.55881 46.0163 5.0828 45.9121 5.5717 45.7096C6.0606 45.5071 6.50482 45.2103 6.87901 44.8361C7.25319 44.4619 7.55001 44.0177 7.75252 43.5288C7.95503 43.0399 8.05926 42.5159 8.05926 41.9867V25.1926C8.05769 24.1244 7.63264 23.1004 6.87728 22.345C6.12191 21.5896 5.09787 21.1646 4.02963 21.163V21.1571ZM51.0578 21.1571C49.989 21.1587 48.9645 21.5841 48.2091 22.3401C47.4536 23.0961 47.0289 24.1209 47.0281 25.1897V41.9867C47.0281 42.5159 47.1324 43.0399 47.3349 43.5288C47.5374 44.0177 47.8342 44.4619 48.2084 44.8361C48.5826 45.2103 49.0268 45.5071 49.5157 45.7096C50.0046 45.9121 50.5286 46.0163 51.0578 46.0163C51.587 46.0163 52.111 45.9121 52.5999 45.7096C53.0887 45.5071 53.533 45.2103 53.9072 44.8361C54.2813 44.4619 54.5782 44.0177 54.7807 43.5288C54.9832 43.0399 55.0874 42.5159 55.0874 41.9867V25.1926C55.0858 24.1244 54.6608 23.1004 53.9054 22.345C53.1501 21.5896 52.126 21.1646 51.0578 21.163V21.1571Z" fill="white"/>
<path d="M19.2444 13.8531C20.0741 13.8531 20.7466 13.1805 20.7466 12.3509C20.7466 11.5212 20.0741 10.8486 19.2444 10.8486C18.4148 10.8486 17.7422 11.5212 17.7422 12.3509C17.7422 13.1805 18.4148 13.8531 19.2444 13.8531Z" fill="white"/>
<path d="M35.8426 13.8531C36.6722 13.8531 37.3448 13.1805 37.3448 12.3509C37.3448 11.5212 36.6722 10.8486 35.8426 10.8486C35.0129 10.8486 34.3403 11.5212 34.3403 12.3509C34.3403 13.1805 35.0129 13.8531 35.8426 13.8531Z" fill="white"/>
<path fill-rule="evenodd" clip-rule="evenodd" d="M32.5924 32.5925C29.3196 32.5925 26.6665 35.2457 26.6665 38.5185V74.074C26.6665 77.3468 29.3196 79.9999 32.5924 79.9999H50.3702C53.643 79.9999 56.2961 77.3468 56.2961 74.074V38.5185C56.2961 35.2457 53.643 32.5925 50.3702 32.5925H32.5924ZM41.4815 41.4813C43.1179 41.4813 44.4445 40.1548 44.4445 38.5184C44.4445 36.882 43.1179 35.5554 41.4815 35.5554C39.8451 35.5554 38.5186 36.882 38.5186 38.5184C38.5186 40.1548 39.8451 41.4813 41.4815 41.4813Z" fill="#5DFDCB"/>
<path fill-rule="evenodd" clip-rule="evenodd" d="M45.5289 32.5925H32.5924C29.3196 32.5925 26.6665 35.2457 26.6665 38.5185V52.268H30.2341V61.1568C30.2341 62.2256 30.6586 63.2505 31.4143 64.0062C32.17 64.7619 33.195 65.1865 34.2637 65.1865C35.3324 65.1865 36.3574 64.7619 37.1131 64.0062C37.8688 63.2505 38.2933 62.2256 38.2933 61.1568V52.268H41.1793C41.7506 52.2683 42.3164 52.1561 42.8443 51.9376C43.3721 51.7192 43.8518 51.3988 44.2558 50.9948C44.6598 50.5909 44.9801 50.1112 45.1986 49.5833C45.417 49.0554 45.5293 48.4896 45.5289 47.9183V32.5925ZM47.0282 32.5925H50.3702C52.2947 32.5925 54.0049 33.5099 55.0874 34.9312V41.9865C55.0874 42.5156 54.9832 43.0396 54.7807 43.5285C54.5782 44.0174 54.2813 44.4617 53.9072 44.8359C53.533 45.21 53.0887 45.5069 52.5999 45.7094C52.111 45.9119 51.587 46.0161 51.0578 46.0161C50.5286 46.0161 50.0046 45.9119 49.5157 45.7094C49.0268 45.5069 48.5826 45.21 48.2084 44.8359C47.8342 44.4617 47.5374 44.0174 47.3349 43.5285C47.1324 43.0396 47.0281 42.5156 47.0282 41.9865V32.5925ZM44.4445 38.5184C44.4445 40.1548 43.1179 41.4813 41.4815 41.4813C39.8451 41.4813 38.5186 40.1548 38.5186 38.5184C38.5186 36.882 39.8451 35.5554 41.4815 35.5554C43.1179 35.5554 44.4445 36.882 44.4445 38.5184Z" fill="#1D4ED8"/>
</svg>
