<svg width="80" height="80" viewBox="0 0 80 80" fill="none" xmlns="http://www.w3.org/2000/svg">
<path d="M45.3995 36.565L45.3993 36.5763L45.3994 36.5877C45.4128 39.838 46.3775 43.0134 48.1745 45.7219C49.7264 48.061 51.8404 49.9636 54.3138 51.2608C53.2752 54.1754 51.8673 56.9467 50.1232 59.5065C48.6762 61.6223 47.2989 63.5824 45.7426 65.0373C44.2142 66.466 42.6174 67.3074 40.7352 67.3419L40.7347 67.3419C38.7964 67.3782 37.536 66.8325 35.9573 66.149L35.8971 66.1229C34.2476 65.4089 32.3375 64.6045 29.3995 64.6045C26.4806 64.6045 24.5428 65.3528 22.8616 66.0647C22.7542 66.1102 22.6484 66.1552 22.544 66.1996C21.0373 66.8407 19.818 67.3596 18.0606 67.4289C16.3439 67.4918 14.7051 66.6424 13.0439 65.0858C11.3796 63.5263 9.87237 61.4268 8.41866 59.3258C5.5808 55.2218 3.05128 49.3756 1.97601 43.2893C0.898717 37.1917 1.30992 31.0335 4.11618 26.16L4.12094 26.1517L4.1256 26.1434C5.42882 23.8084 7.31653 21.8523 9.60361 20.4668C11.8888 19.0824 14.4943 18.3152 17.1651 18.2403C19.0767 18.2063 21.0016 18.8528 22.9405 19.6096C23.1805 19.7033 23.424 19.8 23.6685 19.897C24.3703 20.1756 25.0799 20.4573 25.7367 20.6805C26.6208 20.9809 27.5735 21.2361 28.494 21.2361C29.4425 21.2361 30.4753 20.9239 31.4277 20.5825C31.9491 20.3956 32.5609 20.1547 33.1814 19.9104C33.6597 19.7221 34.1432 19.5317 34.5944 19.3625C36.8459 18.518 39.199 17.8349 41.5331 18.0716L41.5798 18.0763L41.6267 18.078C43.8904 18.1581 46.1048 18.7619 48.0959 19.8418C49.6599 20.6901 51.0528 21.8141 52.2093 23.1556C50.3412 24.5544 48.7763 26.3266 47.6178 28.3655C46.1965 30.867 45.4332 33.6882 45.3995 36.565ZM37.0748 10.0667L37.0565 10.0881L37.0391 10.1103C35.9615 11.4802 34.5828 12.5835 33.0098 13.3344C31.8545 13.886 30.6173 14.2366 29.3512 14.3746C29.3976 13.1037 29.6307 11.8439 30.045 10.6362C30.6104 8.98805 31.5017 7.47052 32.6659 6.17407L32.673 6.16625L32.6799 6.15833C34.6884 3.85436 37.3852 2.28164 40.3489 1.65708C40.2363 4.73386 39.0916 7.70092 37.0748 10.0667Z" fill="#1D4ED8" stroke="#1D4ED8" stroke-width="2.85714"/>
<path fill-rule="evenodd" clip-rule="evenodd" d="M34.2853 34.2856C31.1294 34.2856 28.571 36.844 28.571 39.9999V74.2856C28.571 77.4416 31.1294 79.9999 34.2853 79.9999H51.4282C54.5841 79.9999 57.1425 77.4416 57.1425 74.2856V39.9999C57.1425 36.844 54.5841 34.2856 51.4282 34.2856H34.2853ZM37.1423 38.5711C37.1423 37.7822 37.7819 37.1426 38.5709 37.1426H47.1423C47.9313 37.1426 48.5709 37.7822 48.5709 38.5711C48.5709 39.3601 47.9313 39.9997 47.1423 39.9997H38.5709C37.7819 39.9997 37.1423 39.3601 37.1423 38.5711ZM34.2852 72.8569C34.2852 72.0679 34.9247 71.4283 35.7137 71.4283C36.5027 71.4283 37.1423 72.0679 37.1423 72.8569C37.1423 73.6458 36.5027 74.2854 35.7137 74.2854C34.9247 74.2854 34.2852 73.6458 34.2852 72.8569ZM49.9994 71.4283C49.2105 71.4283 48.5709 72.0679 48.5709 72.8569C48.5709 73.6458 49.2105 74.2854 49.9994 74.2854C50.7884 74.2854 51.428 73.6458 51.428 72.8569C51.428 72.0679 50.7884 71.4283 49.9994 71.4283Z" fill="#5DFDCB"/>
<path fill-rule="evenodd" clip-rule="evenodd" d="M34.2853 34.2856C31.1294 34.2856 28.571 36.844 28.571 39.9999V74.2856C28.571 77.4416 31.1294 79.9999 34.2853 79.9999H51.4282C54.5841 79.9999 57.1425 77.4416 57.1425 74.2856V39.9999C57.1425 36.844 54.5841 34.2856 51.4282 34.2856H34.2853ZM37.1423 38.5711C37.1423 37.7822 37.7819 37.1426 38.5709 37.1426H47.1423C47.9313 37.1426 48.5709 37.7822 48.5709 38.5711C48.5709 39.3601 47.9313 39.9997 47.1423 39.9997H38.5709C37.7819 39.9997 37.1423 39.3601 37.1423 38.5711ZM34.2852 72.8569C34.2852 72.0679 34.9247 71.4283 35.7137 71.4283C36.5027 71.4283 37.1423 72.0679 37.1423 72.8569C37.1423 73.6458 36.5027 74.2854 35.7137 74.2854C34.9247 74.2854 34.2852 73.6458 34.2852 72.8569ZM49.9994 71.4283C49.2105 71.4283 48.5709 72.0679 48.5709 72.8569C48.5709 73.6458 49.2105 74.2854 49.9994 74.2854C50.7884 74.2854 51.428 73.6458 51.428 72.8569C51.428 72.0679 50.7884 71.4283 49.9994 71.4283Z" fill="#5DFDCB"/>
<path fill-rule="evenodd" clip-rule="evenodd" d="M47.0248 34.2856C46.9028 35.0424 46.8365 35.8097 46.8274 36.5813C46.8282 36.7687 46.8325 36.9558 46.8401 37.1426H38.5709C37.7819 37.1426 37.1423 37.7822 37.1423 38.5711C37.1423 39.3601 37.7819 39.9997 38.5709 39.9997H47.1423C47.1718 39.9997 47.2011 39.9988 47.2302 39.9971C47.6411 41.7468 48.3607 43.4188 49.3644 44.9316C51.0072 47.4077 53.3389 49.3487 56.0719 50.5151C54.9652 53.9939 53.3589 57.2934 51.3033 60.3104C48.4353 64.5039 45.4571 68.6837 40.7609 68.7698C38.5108 68.8118 37.0057 68.1598 35.4404 67.4817C33.801 66.7714 32.0956 66.0326 29.399 66.0326C29.1127 66.0326 28.837 66.0404 28.571 66.0553V39.9999C28.571 36.844 31.1294 34.2856 34.2853 34.2856H47.0248Z" fill="white"/>
</svg>
