<svg width="81" height="80" viewBox="0 0 81 80" fill="none" xmlns="http://www.w3.org/2000/svg">
<g clip-path="url(#clip0_151_341)">
<path d="M45.5242 36.565L45.5241 36.5763L45.5241 36.5877C45.5376 39.838 46.5023 43.0134 48.2992 45.7219C49.8512 48.061 51.9651 49.9636 54.4385 51.2608C53.4 54.1754 51.9921 56.9467 50.248 59.5065C48.801 61.6223 47.4237 63.5824 45.8674 65.0373C44.339 66.466 42.7422 67.3074 40.86 67.3419L40.8595 67.3419C38.9211 67.3782 37.6608 66.8325 36.082 66.149L36.0219 66.1229C34.3724 65.4089 32.4623 64.6045 29.5243 64.6045C26.6053 64.6045 24.6675 65.3528 22.9863 66.0647C22.8789 66.1102 22.7732 66.1552 22.6688 66.1996C21.1621 66.8407 19.9428 67.3596 18.1853 67.4289C16.4686 67.4918 14.8298 66.6424 13.1686 65.0858C11.5044 63.5263 9.99712 61.4268 8.54341 59.3258C5.70556 55.2218 3.17603 49.3756 2.10076 43.2893C1.02347 37.1917 1.43468 31.0335 4.24093 26.16L4.2457 26.1517L4.25036 26.1434C5.55358 23.8084 7.44129 21.8523 9.72836 20.4668C12.0136 19.0824 14.6191 18.3152 17.2898 18.2403C19.2015 18.2063 21.1263 18.8528 23.0652 19.6096C23.3053 19.7033 23.5488 19.8 23.7933 19.897C24.4951 20.1756 25.2047 20.4573 25.8614 20.6805C26.7456 20.9809 27.6983 21.2361 28.6188 21.2361C29.5673 21.2361 30.6001 20.9239 31.5524 20.5825C32.0738 20.3956 32.6856 20.1547 33.3062 19.9104C33.7845 19.7221 34.268 19.5317 34.7192 19.3625C36.9707 18.518 39.3237 17.8349 41.6578 18.0716L41.7045 18.0763L41.7514 18.078C44.0152 18.1581 46.2295 18.7619 48.2206 19.8418C49.7847 20.6901 51.1775 21.8141 52.3341 23.1556C50.466 24.5544 48.9011 26.3266 47.7426 28.3655C46.3212 30.867 45.558 33.6882 45.5242 36.565ZM37.1995 10.0667L37.1813 10.0881L37.1638 10.1103C36.0863 11.4802 34.7075 12.5835 33.1346 13.3344C31.9793 13.886 30.742 14.2366 29.4759 14.3746C29.5224 13.1037 29.7555 11.8439 30.1697 10.6362C30.7351 8.98805 31.6265 7.47052 32.7907 6.17407L32.7977 6.16625L32.8046 6.15833C34.8132 3.85436 37.51 2.28164 40.4737 1.65708C40.3611 4.73386 39.2163 7.70092 37.1995 10.0667Z" fill="white" stroke="white" stroke-width="2.85714"/>
<path fill-rule="evenodd" clip-rule="evenodd" d="M34.4101 34.2856C31.2542 34.2856 28.6958 36.844 28.6958 39.9999V74.2856C28.6958 77.4416 31.2542 79.9999 34.4101 79.9999H51.5529C54.7089 79.9999 57.2672 77.4416 57.2672 74.2856V39.9999C57.2672 36.844 54.7089 34.2856 51.5529 34.2856H34.4101ZM37.2671 38.5711C37.2671 37.7822 37.9066 37.1426 38.6956 37.1426H47.2671C48.056 37.1426 48.6956 37.7822 48.6956 38.5711C48.6956 39.3601 48.056 39.9997 47.2671 39.9997H38.6956C37.9066 39.9997 37.2671 39.3601 37.2671 38.5711ZM34.4099 72.8569C34.4099 72.0679 35.0495 71.4283 35.8385 71.4283C36.6275 71.4283 37.2671 72.0679 37.2671 72.8569C37.2671 73.6458 36.6275 74.2854 35.8385 74.2854C35.0495 74.2854 34.4099 73.6458 34.4099 72.8569ZM50.1242 71.4283C49.3352 71.4283 48.6956 72.0679 48.6956 72.8569C48.6956 73.6458 49.3352 74.2854 50.1242 74.2854C50.9132 74.2854 51.5528 73.6458 51.5528 72.8569C51.5528 72.0679 50.9132 71.4283 50.1242 71.4283Z" fill="#5DFDCB"/>
<path fill-rule="evenodd" clip-rule="evenodd" d="M34.4101 34.2856C31.2542 34.2856 28.6958 36.844 28.6958 39.9999V74.2856C28.6958 77.4416 31.2542 79.9999 34.4101 79.9999H51.5529C54.7089 79.9999 57.2672 77.4416 57.2672 74.2856V39.9999C57.2672 36.844 54.7089 34.2856 51.5529 34.2856H34.4101ZM37.2671 38.5711C37.2671 37.7822 37.9066 37.1426 38.6956 37.1426H47.2671C48.056 37.1426 48.6956 37.7822 48.6956 38.5711C48.6956 39.3601 48.056 39.9997 47.2671 39.9997H38.6956C37.9066 39.9997 37.2671 39.3601 37.2671 38.5711ZM34.4099 72.8569C34.4099 72.0679 35.0495 71.4283 35.8385 71.4283C36.6275 71.4283 37.2671 72.0679 37.2671 72.8569C37.2671 73.6458 36.6275 74.2854 35.8385 74.2854C35.0495 74.2854 34.4099 73.6458 34.4099 72.8569ZM50.1242 71.4283C49.3352 71.4283 48.6956 72.0679 48.6956 72.8569C48.6956 73.6458 49.3352 74.2854 50.1242 74.2854C50.9132 74.2854 51.5528 73.6458 51.5528 72.8569C51.5528 72.0679 50.9132 71.4283 50.1242 71.4283Z" fill="#5DFDCB"/>
<path fill-rule="evenodd" clip-rule="evenodd" d="M47.1496 34.2856C47.0276 35.0424 46.9613 35.8097 46.9522 36.5813C46.953 36.7687 46.9572 36.9558 46.9649 37.1426H38.6956C37.9066 37.1426 37.2671 37.7822 37.2671 38.5711C37.2671 39.3601 37.9066 39.9997 38.6956 39.9997H47.2671C47.2966 39.9997 47.3259 39.9988 47.355 39.9971C47.7658 41.7468 48.4855 43.4188 49.4892 44.9316C51.1319 47.4077 53.4636 49.3487 56.1966 50.5151C55.0899 53.9939 53.4836 57.2934 51.4281 60.3104C48.5601 64.5039 45.5819 68.6837 40.8857 68.7698C38.6356 68.8118 37.1305 68.1598 35.5652 67.4817C33.9258 66.7714 32.2203 66.0326 29.5238 66.0326C29.2374 66.0326 28.9618 66.0404 28.6958 66.0553V39.9999C28.6958 36.844 31.2542 34.2856 34.4101 34.2856H47.1496Z" fill="#1D4ED8"/>
</g>
<defs>
<clipPath id="clip0_151_341">
<rect width="80" height="80" fill="white" transform="translate(0.124756)"/>
</clipPath>
</defs>
</svg>
