<svg width="69" height="80" viewBox="0 0 69 80" fill="none" xmlns="http://www.w3.org/2000/svg">
<g clip-path="url(#clip0_54_10906)">
<path d="M6.22668 68.4935C4.51434 68.4935 3.04848 67.8838 1.82909 66.6644C0.609696 65.445 0 63.9791 0 62.2668V6.22668C0 4.51434 0.609696 3.04848 1.82909 1.82909C3.04848 0.609696 4.51434 0 6.22668 0H37.3601C39.0724 0 40.5383 0.609696 41.7577 1.82909C42.9771 3.04848 43.5868 4.51434 43.5868 6.22668V62.2668C43.5868 63.9791 42.9771 65.445 41.7577 66.6644C40.5383 67.8838 39.0724 68.4935 37.3601 68.4935H6.22668ZM21.7934 60.7101C22.6755 60.7101 23.4149 60.4118 24.0116 59.815C24.6084 59.2183 24.9067 58.4789 24.9067 57.5968C24.9067 56.7147 24.6084 55.9752 24.0116 55.3785C23.4149 54.7818 22.6755 54.4834 21.7934 54.4834C20.9113 54.4834 20.1718 54.7818 19.5751 55.3785C18.9784 55.9752 18.68 56.7147 18.68 57.5968C18.68 58.4789 18.9784 59.2183 19.5751 59.815C20.1718 60.4118 20.9113 60.7101 21.7934 60.7101Z" fill="white"/>
<path d="M56.8274 48.6965C55.3865 49.5434 54.9048 51.3986 55.7518 52.8394L56.6216 54.3258L56.6049 54.332L53.7539 49.4821C52.9069 48.0413 51.0517 47.5595 49.6109 48.4065C48.17 49.2535 47.6883 51.1087 48.5353 52.5495L50.7452 56.308L47.1663 50.2398C46.3193 48.7989 44.465 48.3172 43.0241 49.1651C41.5851 50.0103 41.1033 51.8602 41.945 53.3002L36.313 43.7196C35.4652 42.2788 33.6109 41.797 32.17 42.644C30.7283 43.491 30.2475 45.3462 31.0944 46.787L41.628 64.7043L36.4164 60.5053C35.0228 59.5812 33.1449 59.9622 32.2208 61.3558C31.2976 62.7485 31.6787 64.6264 33.0713 65.5504C33.0713 65.5504 41.5097 72.3789 42.3874 73.0201C47.2162 76.5429 50.8371 78.8579 53.0076 79.6165C54.1235 80.0062 55.6362 80.2191 56.675 79.6585L67.0263 73.6052C68.1273 73.0105 68.6371 71.08 68.4584 69.8415C68.0494 67.0106 67.5738 64.3452 66.3422 60.4851C65.9954 59.3981 64.4109 56.1013 63.8661 55.0993L60.9704 49.7721C60.1234 48.3312 58.2682 47.8495 56.8274 48.6965Z" fill="#5DFDCB"/>
<path d="M30.8544 55.0083C30.8045 55.0083 30.7528 55.0022 30.702 54.989C29.3776 54.6413 28.1531 54.0518 27.0609 53.2364C25.9301 52.3911 24.9929 51.3401 24.2747 50.1112C23.5564 48.8832 23.1001 47.5509 22.9188 46.1504C22.7436 44.7989 22.8312 43.4421 23.178 42.1178C23.5249 40.7934 24.1153 39.5689 24.9307 38.4767C25.7759 37.3459 26.827 36.4087 28.055 35.6904C29.2839 34.9722 30.6161 34.5159 32.0158 34.3345C33.3682 34.1594 34.725 34.247 36.0493 34.5938C37.3728 34.9415 38.5982 35.531 39.6904 36.3465C40.8212 37.1917 41.7584 38.2428 42.4767 39.4708C43.1949 40.6997 43.6504 42.0319 43.8325 43.4325C43.8737 43.7539 43.6469 44.0491 43.3245 44.0903C43.0031 44.1323 42.7079 43.9055 42.6659 43.5831C42.5056 42.3402 42.1 41.156 41.4615 40.0647C40.8238 38.9724 39.9909 38.0387 38.9862 37.2881C38.0166 36.5637 36.9279 36.0399 35.7507 35.7316C34.5743 35.4224 33.3682 35.3453 32.1674 35.5004C30.9245 35.6615 29.7403 36.0671 28.6489 36.7056C27.5566 37.3433 26.6229 38.1762 25.8723 39.18C25.1479 40.1505 24.6241 41.2392 24.315 42.4156C24.0066 43.5928 23.9296 44.7989 24.0846 45.9997C24.2458 47.2426 24.6513 48.4268 25.2889 49.5182C25.9275 50.6104 26.7605 51.5442 27.7642 52.2939C28.7347 53.0192 29.8235 53.5429 30.9998 53.8513C31.3142 53.9336 31.5017 54.255 31.4193 54.5695C31.351 54.8323 31.1145 55.0066 30.8544 55.0083Z" fill="#5DFDCB"/>
<path d="M29.6219 50.0279C29.4984 50.0279 29.374 49.9903 29.2672 49.9106C28.5533 49.3771 27.9621 48.7141 27.5084 47.9389C27.0555 47.1638 26.7682 46.3229 26.6535 45.4391C26.5431 44.586 26.5974 43.7294 26.8173 42.8938C27.0362 42.0582 27.4085 41.2856 27.9227 40.5963C28.4561 39.8824 29.12 39.2903 29.8952 38.8375C30.6703 38.3846 31.5112 38.0965 32.395 37.9817C33.2481 37.8714 34.1039 37.9266 34.9395 38.1455C35.7751 38.3645 36.5485 38.7368 37.2378 39.2518C37.9517 39.7852 38.5429 40.4483 38.9966 41.2234C39.4494 41.9986 39.7376 42.8403 39.8515 43.7232C39.8935 44.0456 39.6667 44.3399 39.3443 44.3819C39.0229 44.4239 38.7277 44.1962 38.6857 43.8748C38.5919 43.1478 38.3546 42.4558 37.9814 41.8173C37.6083 41.1788 37.1213 40.6322 36.5336 40.1934C35.9669 39.7694 35.3301 39.4629 34.6417 39.2824C33.9532 39.102 33.2481 39.0565 32.5456 39.1476C31.8195 39.2422 31.1267 39.4786 30.4882 39.8527C29.8496 40.2258 29.3031 40.7128 28.8651 41.2996C28.4412 41.8672 28.1346 42.504 27.9542 43.1924C27.7738 43.88 27.7282 44.5851 27.8193 45.2876C27.9139 46.0146 28.1504 46.7074 28.5235 47.3451C28.8975 47.9845 29.3837 48.5301 29.9714 48.969C30.2315 49.1634 30.2841 49.5313 30.0905 49.7914C29.9758 49.9447 29.7997 50.0271 29.6219 50.0279Z" fill="#5DFDCB"/>
<path fill-rule="evenodd" clip-rule="evenodd" d="M43.5868 48.9068V62.2668C43.5868 63.9791 42.9771 65.445 41.7577 66.6644C40.5383 67.8838 39.0724 68.4935 37.3601 68.4935H36.7159C34.7663 66.922 33.0713 65.5504 33.0713 65.5504C31.6787 64.6264 31.2977 62.7485 32.2208 61.3558C33.1449 59.9622 35.0228 59.5812 36.4164 60.5053L41.628 64.7043L31.0944 46.787C30.2475 45.3462 30.7283 43.491 32.17 42.644C33.6109 41.797 35.4652 42.2788 36.313 43.7196L41.945 53.3002C41.1033 51.8602 41.5851 50.0103 43.0241 49.1651C43.206 49.058 43.3945 48.9722 43.5868 48.9068ZM43.5868 42.1589V43.989C43.5113 44.0419 43.4223 44.0778 43.3245 44.0903C43.0031 44.1323 42.7079 43.9055 42.6658 43.5831C42.5056 42.3402 42.1 41.156 41.4615 40.0647C40.8238 38.9724 39.9909 38.0387 38.9862 37.2881C38.0166 36.5637 36.9279 36.0399 35.7507 35.7316C34.5743 35.4224 33.3682 35.3453 32.1674 35.5004C30.9245 35.6615 29.7403 36.0671 28.6489 36.7056C27.5566 37.3433 26.6229 38.1762 25.8723 39.18C25.1479 40.1505 24.6241 41.2392 24.315 42.4156C24.0066 43.5928 23.9296 44.7989 24.0846 45.9997C24.2458 47.2426 24.6513 48.4268 25.2889 49.5182C25.9275 50.6104 26.7605 51.5442 27.7642 52.2939C28.7347 53.0192 29.8235 53.5429 30.9998 53.8513C31.3142 53.9336 31.5017 54.255 31.4193 54.5695C31.351 54.8323 31.1145 55.0066 30.8544 55.0083C30.8045 55.0083 30.7528 55.0022 30.702 54.989C29.3776 54.6413 28.1531 54.0518 27.0609 53.2364C25.9301 52.3911 24.9929 51.3401 24.2747 50.1112C23.5564 48.8832 23.1001 47.5509 22.9188 46.1504C22.7436 44.7989 22.8312 43.4421 23.178 42.1178C23.5249 40.7934 24.1153 39.5689 24.9307 38.4767C25.7759 37.3459 26.827 36.4087 28.055 35.6904C29.2839 34.9722 30.6161 34.5159 32.0158 34.3345C33.3682 34.1594 34.725 34.247 36.0493 34.5938C37.3728 34.9415 38.5982 35.531 39.6904 36.3465C40.8212 37.1917 41.7584 38.2428 42.4767 39.4708C42.9737 40.3212 43.3449 41.2211 43.5868 42.1589ZM29.2672 49.9106C29.374 49.9903 29.4984 50.0279 29.6219 50.0279C29.7997 50.0271 29.9758 49.9447 30.0905 49.7914C30.2841 49.5313 30.2315 49.1634 29.9714 48.969C29.3837 48.5301 28.8975 47.9845 28.5235 47.3451C28.1504 46.7074 27.9139 46.0146 27.8193 45.2876C27.7282 44.5851 27.7738 43.88 27.9542 43.1924C28.1346 42.504 28.4412 41.8672 28.8651 41.2996C29.3031 40.7128 29.8496 40.2258 30.4882 39.8527C31.1267 39.4786 31.8195 39.2422 32.5456 39.1476C33.2481 39.0565 33.9532 39.102 34.6417 39.2824C35.3301 39.4629 35.9669 39.7694 36.5336 40.1934C37.1213 40.6322 37.6083 41.1788 37.9814 41.8173C38.3546 42.4558 38.5919 43.1478 38.6857 43.8748C38.7277 44.1962 39.0229 44.4239 39.3443 44.3819C39.6667 44.3399 39.8935 44.0456 39.8515 43.7232C39.7376 42.8403 39.4494 41.9986 38.9966 41.2234C38.5429 40.4483 37.9517 39.7852 37.2378 39.2518C36.5485 38.7368 35.7751 38.3645 34.9395 38.1455C34.1039 37.9266 33.2481 37.8714 32.395 37.9817C31.5112 38.0965 30.6703 38.3846 29.8952 38.8375C29.12 39.2903 28.4561 39.8824 27.9227 40.5963C27.4085 41.2856 27.0362 42.0582 26.8173 42.8938C26.5974 43.7294 26.5431 44.586 26.6535 45.4391C26.7682 46.3229 27.0555 47.1638 27.5084 47.9389C27.9621 48.7141 28.5533 49.3771 29.2672 49.9106Z" fill="#1D4ED8"/>
</g>
<defs>
<clipPath id="clip0_54_10906">
<rect width="68.4935" height="80" fill="white"/>
</clipPath>
</defs>
</svg>
