<svg width="60" height="60" viewBox="0 0 60 60" fill="none" xmlns="http://www.w3.org/2000/svg">
<path d="M41.2547 55.0099C35.0396 55.0099 30 49.9703 30 43.7552C30 37.5401 35.0396 32.5005 41.2547 32.5005C47.4723 32.5005 52.5094 37.5401 52.5094 43.7552C52.5094 49.9703 47.4723 55.0099 41.2547 55.0099" stroke="#1D4ED8" stroke-width="3" stroke-linecap="round" stroke-linejoin="round"/>
<path d="M45.0063 24.9975V19.5653C45.0063 18.2397 44.4786 16.9667 43.5407 16.0288L36.4677 8.95584C35.5298 8.01795 34.2568 7.49023 32.9313 7.49023H14.9938C12.2301 7.49023 9.9917 9.72867 9.9917 12.4923V47.5069C9.9917 50.2706 12.2301 52.509 14.9938 52.509H24.998" stroke="#1D4ED8" stroke-width="3" stroke-linecap="round" stroke-linejoin="round"/>
<path d="M45.0062 19.9954H35.002C33.6214 19.9954 32.501 18.875 32.501 17.4944V7.49023" stroke="#1D4ED8" stroke-width="3" stroke-linecap="round" stroke-linejoin="round"/>
<path d="M45.399 41.6846L40.2169 46.8667L37.1106 43.7554" stroke="#1D4ED8" stroke-width="3" stroke-linecap="round" stroke-linejoin="round"/>
</svg>
