<svg width="60" height="60" viewBox="0 0 60 60" fill="none" xmlns="http://www.w3.org/2000/svg">
<path d="M23.7725 45.0059V46.2864C23.7725 47.9376 24.4287 49.5211 25.5968 50.6882C26.7648 51.8553 28.3489 52.5103 30.0001 52.509V52.509C31.6515 52.5096 33.2355 51.8541 34.4035 50.6866C35.5715 49.5191 36.2277 47.9353 36.2277 46.2839V45.0059" stroke="#1D4ED8" stroke-width="3" stroke-linecap="round" stroke-linejoin="round"/>
<path fill-rule="evenodd" clip-rule="evenodd" d="M44.8737 45.0059C47.7095 45.0059 50.0084 42.707 50.0084 39.8712V39.8712C50.0072 38.4307 49.4352 37.0493 48.4177 36.0296L45.0063 32.6207V22.4965C45.0063 14.2088 38.2878 7.49023 30 7.49023V7.49023C21.7123 7.49023 14.9938 14.2088 14.9938 22.4965V32.6207L11.5824 36.0296C10.5648 37.0493 9.99285 38.4307 9.9917 39.8712V39.8712C9.9917 41.233 10.5327 42.539 11.4956 43.502C12.4585 44.4649 13.7645 45.0059 15.1263 45.0059H44.8737Z" stroke="#1D4ED8" stroke-width="3" stroke-linecap="round" stroke-linejoin="round"/>
</svg>
