<svg width="60" height="60" viewBox="0 0 60 60" fill="none" xmlns="http://www.w3.org/2000/svg">
<path d="M14.0834 14.0831C6.4901 21.6765 5.31806 33.5763 11.2841 42.5051C17.2501 51.434 28.6926 54.905 38.6138 50.7956C48.535 46.6862 54.1718 36.1408 52.0769 25.6085C49.982 15.0762 40.7389 7.49023 30.0003 7.49023V12.4923" stroke="#1D4ED8" stroke-width="3" stroke-linecap="round" stroke-linejoin="round"/>
<path fill-rule="evenodd" clip-rule="evenodd" d="M20.963 20.0498L31.5997 24.4295C33.2977 25.1287 34.5338 26.6301 34.8939 28.4307C35.2541 30.2313 34.6905 32.0928 33.392 33.3912V33.3912C32.0936 34.6897 30.2322 35.2533 28.4316 34.8932C26.6309 34.5331 25.1294 33.297 24.4302 31.599L20.0505 20.9623C19.943 20.7013 20.003 20.4014 20.2026 20.2018C20.4021 20.0023 20.7021 19.9423 20.963 20.0498Z" stroke="#1D4ED8" stroke-width="3" stroke-linecap="round" stroke-linejoin="round"/>
</svg>
