<svg width="61" height="60" viewBox="0 0 61 60" fill="none" xmlns="http://www.w3.org/2000/svg">
<circle cx="30.3331" cy="29.9996" r="22.5094" stroke="#1D4ED8" stroke-width="3" stroke-linecap="round" stroke-linejoin="round"/>
<path d="M30.3332 19.9961C33.4024 19.9961 35.8905 22.4842 35.8905 25.5534C35.8905 28.6226 33.4024 31.1107 30.3332 31.1107C27.264 31.1107 24.7759 28.6226 24.7759 25.5534C24.7759 22.4842 27.264 19.9961 30.3332 19.9961" stroke="#1D4ED8" stroke-width="3" stroke-linecap="round" stroke-linejoin="round"/>
<path fill-rule="evenodd" clip-rule="evenodd" d="M40.3374 41.1874C34.8122 46.7124 25.8543 46.7124 20.3291 41.1874C20.6215 40.4565 21.0725 39.7995 21.6497 39.2641C22.6253 38.3582 23.9073 37.8544 25.2386 37.8535H35.4304C36.7611 37.8543 38.0422 38.3582 39.0169 39.2641C39.5954 39.7984 40.0466 40.4556 40.3374 41.1874Z" stroke="#1D4ED8" stroke-width="3" stroke-linecap="round" stroke-linejoin="round"/>
</svg>
