<svg width="60" height="60" viewBox="0 0 60 60" fill="none" xmlns="http://www.w3.org/2000/svg">
<path d="M43.1303 16.8698C48.441 22.1804 50.0297 30.1672 47.1555 37.106C44.2814 44.0447 37.5105 48.5689 30.0001 48.5689C22.4897 48.5689 15.7188 44.0447 12.8447 37.106C9.97057 30.1672 11.5592 22.1804 16.8699 16.8698C20.3521 13.3872 25.0753 11.4307 30.0001 11.4307C34.925 11.4307 39.6481 13.3872 43.1303 16.8698" stroke="#1D4ED8" stroke-width="3" stroke-linecap="round" stroke-linejoin="round"/>
<path d="M52.5095 29.9995H48.5693" stroke="#1D4ED8" stroke-width="3" stroke-linecap="round" stroke-linejoin="round"/>
<path d="M11.4308 29.9995H7.49072" stroke="#1D4ED8" stroke-width="3" stroke-linecap="round" stroke-linejoin="round"/>
<path d="M30 52.5096V48.5693" stroke="#1D4ED8" stroke-width="3" stroke-linecap="round" stroke-linejoin="round"/>
<path d="M30 7.49023V11.4304" stroke="#1D4ED8" stroke-width="3" stroke-linecap="round" stroke-linejoin="round"/>
<path d="M50.7959 21.3861L47.1545 22.8943" stroke="#1D4ED8" stroke-width="3" stroke-linecap="round" stroke-linejoin="round"/>
<path d="M12.8453 37.1058L9.2041 38.614" stroke="#1D4ED8" stroke-width="3" stroke-linecap="round" stroke-linejoin="round"/>
<path d="M21.386 9.2041L22.8943 12.8455" stroke="#1D4ED8" stroke-width="3" stroke-linecap="round" stroke-linejoin="round"/>
<path d="M38.6141 50.7957L37.1057 47.1543" stroke="#1D4ED8" stroke-width="3" stroke-linecap="round" stroke-linejoin="round"/>
<path d="M9.2041 21.3861L12.8455 22.8943" stroke="#1D4ED8" stroke-width="3" stroke-linecap="round" stroke-linejoin="round"/>
<path d="M47.1548 37.1058L50.796 38.614" stroke="#1D4ED8" stroke-width="3" stroke-linecap="round" stroke-linejoin="round"/>
<path d="M21.386 50.7957L22.8943 47.1543" stroke="#1D4ED8" stroke-width="3" stroke-linecap="round" stroke-linejoin="round"/>
<path d="M38.6141 9.2041L37.1057 12.8455" stroke="#1D4ED8" stroke-width="3" stroke-linecap="round" stroke-linejoin="round"/>
<path d="M45.9166 45.9159L34.5476 34.5469" stroke="#1D4ED8" stroke-width="3" stroke-linecap="round" stroke-linejoin="round"/>
<path d="M25.4525 25.452L14.0835 14.083" stroke="#1D4ED8" stroke-width="3" stroke-linecap="round" stroke-linejoin="round"/>
<path d="M45.9166 14.083L34.5476 25.452" stroke="#1D4ED8" stroke-width="3" stroke-linecap="round" stroke-linejoin="round"/>
<path d="M25.4525 34.5469L14.0835 45.9159" stroke="#1D4ED8" stroke-width="3" stroke-linecap="round" stroke-linejoin="round"/>
<path d="M34.5477 25.4521C36.3869 27.2914 36.9372 30.0576 35.9418 32.4607C34.9463 34.8638 32.6013 36.4307 30.0002 36.4307C27.399 36.4307 25.054 34.8638 24.0586 32.4607C23.0632 30.0576 23.6134 27.2914 25.4527 25.4521C26.6587 24.246 28.2945 23.5684 30.0002 23.5684C31.7058 23.5684 33.3416 24.246 34.5477 25.4521" stroke="#1D4ED8" stroke-width="3" stroke-linecap="round" stroke-linejoin="round"/>
</svg>
