<svg width="40" height="40" viewBox="0 0 40 40" fill="none" xmlns="http://www.w3.org/2000/svg">
<g clip-path="url(#clip0_54_8028)">
<path fill-rule="evenodd" clip-rule="evenodd" d="M-0.136719 11.716V33.6836C-0.136719 34.4924 0.518963 35.1481 1.32779 35.1481H33.5469C34.3557 35.1481 35.0114 34.4924 35.0114 33.6836V11.716H-0.136719Z" fill="#1D4ED8"/>
<path fill-rule="evenodd" clip-rule="evenodd" d="M35.0114 11.716V1.4645C35.0114 0.655681 34.3557 0 33.5469 0H1.32779C0.518962 0 -0.136719 0.655681 -0.136719 1.4645V11.716H2.79229H32.0824H35.0114Z" fill="#1D4ED8"/>
<path d="M5.72124 4.39346C5.72124 5.20228 5.06556 5.85796 4.25674 5.85796C3.44792 5.85796 2.79224 5.20228 2.79224 4.39346C2.79224 3.58464 3.44792 2.92896 4.25674 2.92896C5.06556 2.92896 5.72124 3.58464 5.72124 4.39346Z" fill="white"/>
<path d="M10.1148 4.39346C10.1148 5.20228 9.45908 5.85796 8.65025 5.85796C7.84143 5.85796 7.18575 5.20228 7.18575 4.39346C7.18575 3.58464 7.84143 2.92896 8.65025 2.92896C9.45908 2.92896 10.1148 3.58464 10.1148 4.39346Z" fill="white"/>
<path d="M14.5083 4.39346C14.5083 5.20228 13.8526 5.85796 13.0438 5.85796C12.2349 5.85796 11.5793 5.20228 11.5793 4.39346C11.5793 3.58464 12.2349 2.92896 13.0438 2.92896C13.8526 2.92896 14.5083 3.58464 14.5083 4.39346Z" fill="white"/>
<path d="M33.097 24.8965C32.3244 21.3084 30.6769 19.0385 29.1531 19.0385C27.6292 19.0385 25.9817 21.3084 25.2092 24.8965H33.097Z" fill="#5DFDCB"/>
<path d="M24.7597 29.29C24.7595 30.2696 24.8249 31.2481 24.9552 32.219H33.3512C33.4816 31.2481 33.5469 30.2696 33.5467 29.29C33.5469 28.3104 33.4816 27.3319 33.3512 26.361H24.9552C24.8249 27.3319 24.7595 28.3104 24.7597 29.29Z" fill="#5DFDCB"/>
<path d="M25.2092 33.6835C25.9817 37.2715 27.6292 39.5415 29.1531 39.5415C30.6769 39.5415 32.3244 37.2715 33.097 33.6835H25.2092Z" fill="#5DFDCB"/>
<path d="M34.5969 24.8965H39.2101C38.5169 23.319 37.4638 21.926 36.135 20.8291C34.8063 19.7322 33.239 18.9619 31.5588 18.5801C32.9479 19.8022 34.0375 22.0619 34.5969 24.8965Z" fill="#5DFDCB"/>
<path d="M39.7364 26.361H34.8303C34.9511 27.3326 35.0116 28.3108 35.0112 29.29C35.0113 30.2691 34.9507 31.2473 34.8296 32.219H39.7357C40.2697 30.3028 40.2704 28.2771 39.7364 26.361Z" fill="#5DFDCB"/>
<path d="M31.5588 39.9999C33.2392 39.6183 34.8068 38.8481 36.1359 37.7512C37.4649 36.6543 38.5183 35.2611 39.2116 33.6835H34.5984C34.0375 36.518 32.9479 38.7778 31.5588 39.9999Z" fill="#5DFDCB"/>
<path d="M23.7098 33.6835H19.0966C19.7899 35.2611 20.8433 36.6543 22.1723 37.7512C23.5013 38.8481 25.0689 39.6183 26.7493 39.9999C25.3588 38.7778 24.2692 36.518 23.7098 33.6835Z" fill="#5DFDCB"/>
<path d="M26.7479 18.5801C25.0675 18.9617 23.4998 19.7319 22.1708 20.8288C20.8418 21.9257 19.7884 23.3189 19.0951 24.8965H23.7083C24.2692 22.0619 25.3588 19.8022 26.7479 18.5801Z" fill="#5DFDCB"/>
<path d="M23.2952 29.29C23.2951 28.3108 23.3557 27.3326 23.4768 26.361H18.5707C18.0367 28.2771 18.0367 30.3028 18.5707 32.219H23.4768C23.3557 31.2473 23.2951 30.2691 23.2952 29.29Z" fill="#5DFDCB"/>
<path fill-rule="evenodd" clip-rule="evenodd" d="M35.0112 20.0146C33.9533 19.3452 32.7862 18.859 31.5588 18.5801C32.9479 19.8022 34.0375 22.0619 34.5969 24.8965H35.0112V20.0146ZM35.0112 26.361H34.8303C34.9511 27.3326 35.0115 28.3108 35.0112 29.29C35.0113 30.2691 34.9507 31.2473 34.8296 32.219H35.0112V26.361ZM35.0112 33.6835H34.5984C34.513 34.1148 34.4154 34.5328 34.3064 34.9358C34.729 34.6789 35.0112 34.2142 35.0112 33.6835ZM32.712 35.148C32.8565 34.689 32.9858 34.1999 33.097 33.6835H25.2092C25.3203 34.1999 25.4497 34.689 25.5941 35.148H32.712ZM24.0599 35.148C23.9271 34.68 23.8099 34.191 23.7098 33.6835H19.0966C19.3201 34.1921 19.581 34.6815 19.8765 35.148H24.0599ZM26.7479 18.5801C25.0675 18.9617 23.4998 19.7319 22.1708 20.8288C20.8418 21.9257 19.7884 23.3189 19.0951 24.8965H23.7083C24.2692 22.0619 25.3588 19.8022 26.7479 18.5801ZM33.097 24.8965C32.3244 21.3084 30.6769 19.0385 29.1531 19.0385C27.6292 19.0385 25.9817 21.3084 25.2092 24.8965H33.097ZM24.7597 29.29C24.7595 30.2696 24.8249 31.2481 24.9552 32.219H33.3512C33.4816 31.2481 33.5469 30.2696 33.5467 29.29C33.5469 28.3104 33.4816 27.3319 33.3512 26.361H24.9552C24.8249 27.3319 24.7595 28.3104 24.7597 29.29ZM23.4768 26.361C23.3557 27.3326 23.2951 28.3108 23.2952 29.29C23.2951 30.2691 23.3557 31.2473 23.4768 32.219H18.5707C18.0367 30.3028 18.0367 28.2771 18.5707 26.361H23.4768Z" fill="white"/>
</g>
<defs>
<clipPath id="clip0_54_8028">
<rect width="40" height="40" fill="white"/>
</clipPath>
</defs>
</svg>
