<svg width="80" height="80" viewBox="0 0 80 80" fill="none" xmlns="http://www.w3.org/2000/svg">
<g clip-path="url(#clip0_151_723)">
<path fill-rule="evenodd" clip-rule="evenodd" d="M0 23.4321V67.3672C0 68.9848 1.31136 70.2962 2.92901 70.2962H67.3672C68.9848 70.2962 70.2962 68.9848 70.2962 67.3672V23.4321H0Z" fill="#F9F9F9"/>
<path fill-rule="evenodd" clip-rule="evenodd" d="M70.2962 23.4321V2.92901C70.2962 1.31136 68.9848 0 67.3672 0H2.92901C1.31136 0 0 1.31136 0 2.92901V23.4321H5.85802H64.4382H70.2962Z" fill="#F9F9F9"/>
<path d="M11.7159 8.78692C11.7159 10.4046 10.4046 11.7159 8.78692 11.7159C7.16927 11.7159 5.85791 10.4046 5.85791 8.78692C5.85791 7.16927 7.16927 5.85791 8.78692 5.85791C10.4046 5.85791 11.7159 7.16927 11.7159 8.78692Z" fill="#1D4ED8"/>
<path d="M20.503 8.78692C20.503 10.4046 19.1916 11.7159 17.5739 11.7159C15.9563 11.7159 14.6449 10.4046 14.6449 8.78692C14.6449 7.16927 15.9563 5.85791 17.5739 5.85791C19.1916 5.85791 20.503 7.16927 20.503 8.78692Z" fill="#1D4ED8"/>
<path d="M29.29 8.78692C29.29 10.4046 27.9786 11.7159 26.361 11.7159C24.7433 11.7159 23.432 10.4046 23.432 8.78692C23.432 7.16927 24.7433 5.85791 26.361 5.85791C27.9786 5.85791 29.29 7.16927 29.29 8.78692Z" fill="#1D4ED8"/>
<path d="M66.4674 49.7929C64.9223 42.6169 61.6272 38.0769 58.5796 38.0769C55.5319 38.0769 52.2368 42.6169 50.6917 49.7929H66.4674Z" fill="#5DFDCB"/>
<path d="M49.7929 58.58C49.7925 60.5392 49.9231 62.4962 50.1839 64.438H66.9759C67.2367 62.4962 67.3673 60.5392 67.3669 58.58C67.3673 56.6208 67.2367 54.6637 66.9759 52.7219H50.1839C49.9231 54.6637 49.7925 56.6208 49.7929 58.58Z" fill="#5DFDCB"/>
<path d="M50.6917 67.367C52.2368 74.5431 55.5319 79.083 58.5796 79.083C61.6272 79.083 64.9223 74.5431 66.4674 67.367H50.6917Z" fill="#5DFDCB"/>
<path d="M69.4673 49.793H78.6936C77.3073 46.6381 75.201 43.852 72.5435 41.6581C69.886 39.4643 66.7514 37.9238 63.391 37.1602C66.1692 39.6044 68.3484 44.1239 69.4673 49.793Z" fill="#5DFDCB"/>
<path d="M79.7463 52.7219H69.9341C70.1757 54.6653 70.2965 56.6217 70.2959 58.58C70.2961 60.5383 70.1748 62.4947 69.9327 64.438H79.7448C80.8129 60.6056 80.8143 56.5543 79.7463 52.7219Z" fill="#5DFDCB"/>
<path d="M63.391 79.9998C66.7519 79.2366 69.8871 77.6963 72.5452 75.5024C75.2032 73.3085 77.31 70.5222 78.6966 67.367H69.4702C68.3484 73.0361 66.1692 77.5555 63.391 79.9998Z" fill="#5DFDCB"/>
<path d="M47.6929 67.367H38.4666C39.8531 70.5222 41.96 73.3085 44.618 75.5024C47.276 77.6963 50.4112 79.2366 53.7721 79.9998C50.991 77.5555 48.8118 73.0361 47.6929 67.367Z" fill="#5DFDCB"/>
<path d="M53.7692 37.1602C50.4083 37.9234 47.2731 39.4637 44.6151 41.6576C41.9571 43.8514 39.8503 46.6377 38.4637 49.793H47.6901C48.8119 44.1239 50.9911 39.6044 53.7692 37.1602Z" fill="#5DFDCB"/>
<path d="M46.8638 58.58C46.8636 56.6217 46.9849 54.6652 47.227 52.7219H37.4148C36.3468 56.5543 36.3468 60.6056 37.4148 64.438H47.227C46.9849 62.4947 46.8636 60.5383 46.8638 58.58Z" fill="#5DFDCB"/>
<path fill-rule="evenodd" clip-rule="evenodd" d="M70.296 40.0292C68.1801 38.6904 65.8458 37.718 63.391 37.1602C66.1692 39.6044 68.3484 44.1239 69.4673 49.793H70.296V40.0292ZM70.296 52.7219H69.9341C70.1757 54.6653 70.2965 56.6217 70.2959 58.58C70.2961 60.5383 70.1748 62.4947 69.9327 64.438H70.296V52.7219ZM70.296 67.367H69.4702C69.2995 68.2296 69.1043 69.0657 68.8862 69.8719C69.7314 69.3581 70.296 68.4286 70.296 67.3672V67.367ZM65.6974 70.2962C65.9863 69.3782 66.245 68.3999 66.4674 67.367H50.6917C50.9141 68.3999 51.1728 69.3782 51.4617 70.2962H65.6974ZM48.3933 70.2962C48.1276 69.3602 47.8933 68.382 47.6929 67.367H38.4666C38.9136 68.3842 39.4355 69.3631 40.0266 70.2962H48.3933ZM53.7692 37.1602C50.4083 37.9234 47.2731 39.4637 44.6151 41.6576C41.9571 43.8514 39.8503 46.6377 38.4637 49.793H47.6901C48.8119 44.1239 50.9911 39.6044 53.7692 37.1602ZM66.4674 49.7929C64.9223 42.6169 61.6272 38.0769 58.5796 38.0769C55.5319 38.0769 52.2368 42.6169 50.6917 49.7929H66.4674ZM49.7929 58.58C49.7925 60.5392 49.9231 62.4962 50.1839 64.438H66.9759C67.2367 62.4962 67.3673 60.5392 67.3669 58.58C67.3673 56.6208 67.2367 54.6637 66.9759 52.7219H50.1839C49.9231 54.6637 49.7925 56.6208 49.7929 58.58ZM47.227 52.7219C46.9849 54.6652 46.8636 56.6217 46.8638 58.58C46.8636 60.5383 46.9849 62.4947 47.227 64.438H37.4148C36.3468 60.6056 36.3468 56.5543 37.4148 52.7219H47.227Z" fill="#1D4ED8"/>
</g>
<defs>
<clipPath id="clip0_151_723">
<rect width="80" height="80" fill="white"/>
</clipPath>
</defs>
</svg>
